<svg width="501" height="91" viewBox="0 0 501 91" fill="none" xmlns="http://www.w3.org/2000/svg">
<path d="M31.2956 90.5481C26.4388 90.5481 22.0717 89.8555 18.3154 88.4895C14.6646 87.1913 11.3577 85.0782 8.64569 82.3108C5.9855 79.5783 3.96329 76.0912 2.6332 71.9466C1.3031 67.802 0.630371 62.8851 0.630371 57.3283C0.630371 52.1989 1.28206 47.5896 2.56725 43.6257C3.85243 39.6619 5.80704 36.2366 8.37717 33.4407C10.9493 30.6448 14.1337 28.4822 17.681 27.1221C21.2839 25.7246 25.4606 25.0155 30.0953 25.0155C34.4888 25.0155 38.4321 25.6691 41.8154 26.9585C45.1934 28.2496 47.8749 29.8575 49.7846 31.7374C51.7287 33.6622 53.3167 35.916 54.475 38.3945C55.5749 40.6329 56.3858 43.002 56.8882 45.4449C57.284 47.5527 57.4856 49.6924 57.4903 51.837C57.4903 53.2279 57.4666 54.3169 57.4231 55.0733C57.3392 56.0502 57.1718 57.0181 56.9227 57.9665C56.6327 59.1406 56.2159 60.045 55.6841 60.6548C55.1522 61.2647 54.3193 61.8145 53.2085 62.2894C52.0978 62.7643 50.7254 63.0061 49.1279 63.0061H15.3437C15.3437 67.6627 16.8248 71.2382 19.7483 73.6327C22.6719 76.0272 26.556 77.2426 31.2959 77.2426C36.0858 77.2426 40.6481 75.7946 44.8566 72.9391C46.4659 71.9577 47.9586 71.4599 49.2939 71.4599C50.1404 71.4553 50.9794 71.6183 51.7626 71.9396C52.5458 72.2608 53.2577 72.7339 53.8572 73.3316C54.4566 73.9293 54.9319 74.6398 55.2555 75.422C55.579 76.2043 55.7446 77.0428 55.7425 77.8894C55.7516 78.8583 55.5463 79.8172 55.1412 80.6974C54.736 81.5776 54.1412 82.3572 53.3993 82.9805C52.1789 84.121 50.8428 85.1312 49.4128 85.9945C47.8371 86.9712 45.3471 87.9857 42.0111 89.0104C38.5353 90.0516 34.9239 90.5698 31.2956 90.5481ZM30.0953 37.5239C26.0185 37.5239 22.6494 38.6533 20.08 40.8804C17.5106 43.1076 16.0516 46.3457 15.7425 50.497H42.7765C42.7765 46.9081 41.6875 43.8141 39.5381 41.3036C37.3916 38.7963 34.2146 37.5239 30.0953 37.5239Z" fill="#2C47D2"/>
<path d="M69.6644 87.8205C71.079 89.1512 72.8247 89.8161 74.9013 89.8153C76.978 89.8145 78.723 89.1496 80.1364 87.8205C81.5512 86.4899 82.2586 84.8044 82.2586 82.7642V52.3599C82.2586 43.0007 86.7975 38.3212 95.8754 38.3212C103.931 38.3212 107.959 42.6899 107.958 51.4274V82.7642C107.958 84.8038 108.635 86.4892 109.989 87.8205C111.342 89.1518 113.107 89.8167 115.283 89.8153C117.225 89.8549 119.103 89.1256 120.51 87.7865C121.208 87.1523 121.762 86.3759 122.135 85.5096C122.508 84.6433 122.691 83.7072 122.672 82.7642V51.2955C122.672 47.2589 123.771 44.0874 125.968 41.781C128.166 39.4746 131.617 38.3214 136.323 38.3214C144.313 38.3214 148.307 42.6901 148.307 51.4276V82.7642C148.307 84.8038 148.984 86.4892 150.338 87.8205C151.692 89.1518 153.456 89.8167 155.63 89.8153C157.572 89.8549 159.45 89.1256 160.857 87.7865C161.555 87.1524 162.11 86.3761 162.483 85.5098C162.857 84.6435 163.04 83.7073 163.021 82.7642V48.7C163.036 46.3332 162.812 43.9709 162.353 41.6489C161.889 39.4188 161.105 37.2676 160.025 35.262C158.953 33.2249 157.507 31.4077 155.763 29.9054C154.031 28.4194 151.779 27.2329 149.005 26.3458C146.232 25.4588 143.047 25.0152 139.45 25.015C134.923 25.015 131.105 25.7467 127.998 27.21C124.891 28.6733 122.206 30.891 119.943 33.8631C118.132 30.99 115.528 28.7028 112.445 27.2781C109.266 25.7694 105.034 25.015 99.7486 25.015C95.5194 25.015 91.9257 25.8021 88.9677 27.3762C86.0062 28.952 83.7698 30.871 82.2584 33.1329C82.2757 32.1659 82.0932 31.2057 81.7221 30.3125C81.3511 29.4193 80.7996 28.6124 80.1021 27.9423C79.4251 27.2532 78.6149 26.7091 77.7209 26.3431C76.8269 25.9771 75.8677 25.7968 74.9018 25.8133C73.9352 25.7967 72.9753 25.9769 72.0805 26.3429C71.1857 26.7089 70.3747 27.2531 69.6968 27.9423C68.9996 28.6125 68.4483 29.4194 68.0776 30.3126C67.7068 31.2058 67.5247 32.166 67.5424 33.1329V82.7642C67.5424 84.8038 68.2498 86.4892 69.6644 87.8205Z" fill="#2C47D2"/>
<path d="M203.003 90.5476C198.33 90.5476 194.11 89.8571 190.459 88.4956C186.883 87.1819 183.648 85.0781 180.998 82.3408C178.369 79.6182 176.37 76.1763 175.056 72.1135C173.741 68.0506 173.074 63.251 173.074 57.8493C173.074 52.4126 173.738 47.5874 175.046 43.5049C176.354 39.4225 178.345 35.9678 180.963 33.2388C183.607 30.4934 186.84 28.3844 190.418 27.071C194.074 25.7069 198.308 25.015 203.003 25.015C207.698 25.015 211.921 25.7069 215.555 27.0715C219.105 28.3809 222.306 30.4915 224.908 33.2393C227.482 35.9683 229.439 39.4222 230.726 43.5054C232.013 47.5886 232.664 52.414 232.664 57.8497C232.664 63.2514 232.009 68.0504 230.716 72.1139C229.423 76.1775 227.459 79.6182 224.875 82.3408C222.266 85.0804 219.063 87.1859 215.514 88.4956C211.884 89.8571 207.675 90.5476 203.003 90.5476ZM203.003 37.5234C198.044 37.5234 194.272 39.2331 191.792 42.6055C189.313 45.9779 188.056 51.1064 188.056 57.85C188.056 64.4846 189.33 69.5627 191.843 72.9431C194.351 76.3252 198.105 78.0399 203.003 78.0399C207.896 78.0399 211.652 76.325 214.163 72.9431C216.675 69.5613 217.95 64.4808 217.95 57.85C217.95 51.1066 216.693 45.9774 214.213 42.6055C211.733 39.2336 207.962 37.5234 203.003 37.5234Z" fill="#2C47D2"/>
<path d="M245.182 39.3859H248.312V71.3933C248.312 76.8285 250.088 81.2575 253.639 84.6803C257.188 88.1059 261.96 89.8175 267.954 89.8153C268.793 89.8315 269.626 89.6785 270.404 89.3653C271.181 89.0522 271.888 88.5854 272.482 87.9929C273.072 87.4158 273.541 86.7266 273.861 85.9658C274.181 85.205 274.346 84.3879 274.346 83.5624C274.346 82.737 274.181 81.9199 273.861 81.1591C273.541 80.3983 273.072 79.7091 272.482 79.132C271.888 78.5392 271.182 78.072 270.404 77.7585C269.626 77.445 268.793 77.2916 267.954 77.3074C266.628 77.3106 265.348 76.8247 264.358 75.9428C263.838 75.5083 263.425 74.9615 263.148 74.3438C262.871 73.726 262.738 73.0534 262.76 72.3768V39.3859H268.885C269.696 39.3959 270.501 39.2356 271.246 38.9155C271.991 38.5953 272.661 38.1224 273.213 37.5272C273.793 36.9466 274.251 36.2556 274.56 35.495C274.869 34.7345 275.022 33.9197 275.011 33.0989C275.024 32.2826 274.871 31.472 274.562 30.7163C274.253 29.9606 273.794 29.2755 273.213 28.7023C272.656 28.116 271.985 27.6511 271.24 27.3371C270.495 27.0231 269.693 26.8667 268.885 26.8777H262.76V15.5581C262.768 14.6224 262.583 13.695 262.217 12.8341C261.85 11.9731 261.309 11.1972 260.629 10.5549C259.972 9.87955 259.185 9.34468 258.315 8.98272C257.445 8.62077 256.511 8.43927 255.569 8.44924C254.622 8.44095 253.683 8.62307 252.808 8.98479C251.932 9.34651 251.139 9.88045 250.474 10.5549C249.785 11.1926 249.237 11.9669 248.865 12.8284C248.492 13.6899 248.304 14.6196 248.311 15.5581V26.8779H245.182C244.374 26.8669 243.572 27.0233 242.828 27.3374C242.083 27.6514 241.411 28.1162 240.855 28.7025C240.273 29.2757 239.814 29.9608 239.505 30.7165C239.196 31.4721 239.044 32.2826 239.057 33.0989C239.045 33.9197 239.199 34.7345 239.508 35.495C239.816 36.2556 240.275 36.9466 240.855 37.5272C241.406 38.1224 242.076 38.5953 242.821 38.9155C243.567 39.2356 244.371 39.3959 245.182 39.3859Z" fill="#2C47D2"/>
<path d="M286.796 16.1341C288.304 17.6649 290.457 18.4299 293.253 18.4291C296.094 18.4291 298.28 17.6755 299.811 16.1682C301.343 14.6609 302.109 12.5536 302.108 9.84648C302.108 3.85825 299.157 0.864136 293.254 0.864136C287.44 0.864136 284.533 3.85825 284.533 9.84648C284.533 12.5076 285.287 14.6035 286.796 16.1341Z" fill="#2C47D2"/>
<path d="M288.061 87.6874C288.735 88.3783 289.544 88.9236 290.437 89.2898C291.331 89.656 292.29 89.8352 293.255 89.8165C294.225 89.8329 295.188 89.6527 296.086 89.2868C296.984 88.9209 297.799 88.3768 298.481 87.6874C299.18 87.0184 299.733 86.2119 300.106 85.3188C300.478 84.4257 300.661 83.4652 300.644 82.4978V33.1317C300.661 32.1645 300.478 31.2042 300.106 30.3113C299.734 29.4184 299.181 28.6122 298.482 27.9435C297.799 27.254 296.985 26.71 296.086 26.344C295.188 25.9781 294.225 25.798 293.255 25.8144C292.29 25.7957 291.331 25.9749 290.437 26.3411C289.544 26.7073 288.735 27.2526 288.061 27.9435C287.37 28.6166 286.824 29.4243 286.457 30.3167C286.091 31.2091 285.911 32.1672 285.93 33.1317V82.4978C285.911 83.4627 286.091 84.4211 286.457 85.3139C286.824 86.2067 287.37 87.0148 288.061 87.6884" fill="#2C47D2"/>
<path d="M309.633 35.9926L331.406 85.3574C331.985 86.6833 332.932 87.8154 334.135 88.6194C335.359 89.4252 336.798 89.8422 338.264 89.816C339.719 89.8453 341.147 89.4277 342.357 88.6194C343.544 87.8069 344.479 86.6764 345.053 85.3574L366.892 35.9924C367.252 35.0817 367.433 34.1102 367.425 33.131C367.443 32.1665 367.263 31.2084 366.897 30.316C366.531 29.4236 365.985 28.6158 365.294 27.9425C364.62 27.2519 363.811 26.7067 362.918 26.3406C362.024 25.9745 361.066 25.7953 360.1 25.814C358.281 25.814 356.795 26.2909 355.641 27.2447C354.581 28.0715 353.755 29.1605 353.244 30.4042L338.264 68.3279L323.282 30.4042C322.771 29.1605 321.945 28.0715 320.885 27.2447C319.73 26.2909 318.244 25.814 316.426 25.814C315.46 25.7952 314.501 25.9745 313.608 26.3406C312.714 26.7068 311.906 27.2521 311.231 27.943C310.54 28.6162 309.995 29.424 309.628 30.3163C309.262 31.2087 309.082 32.1667 309.1 33.1313C309.092 34.1104 309.273 35.082 309.633 35.9926Z" fill="#2C47D2"/>
<path d="M467.921 90.5016C466.698 90.4961 465.477 90.4193 464.263 90.2716C463.974 90.2383 463.672 90.191 463.337 90.1376L462.99 90.0801C462.22 89.9589 461.5 89.8201 460.791 89.6587C460.239 89.5313 459.654 89.3786 459.052 89.2046C458.617 89.0762 458.201 88.9342 457.801 88.7968C450.807 86.4496 444.582 81.8036 439.296 74.9872C438.905 74.4908 438.44 73.8568 438.258 73.6077L438.14 73.7715C437.896 74.0989 437.528 74.5939 437.221 74.9893C431.931 81.8062 425.705 86.4517 418.717 88.7968C418.327 88.9313 417.906 89.0741 417.463 89.207C416.872 89.3769 416.287 89.5289 415.723 89.6592C415.069 89.8121 414.371 89.9466 413.525 90.0825L413.178 90.1381C412.838 90.1964 412.526 90.2423 412.252 90.2742C411.038 90.4214 409.816 90.4975 408.593 90.5023C406.954 90.4928 405.317 90.3846 403.69 90.1785L402.799 90.0617C401.269 89.8408 399.756 89.5214 398.267 89.1056L397.65 88.9389L397.591 88.8987C392.834 87.4812 388.502 84.911 384.977 81.4164C381.784 78.2125 379.367 74.3207 377.909 70.0386L377.685 69.5118C377.629 69.3473 377.589 69.1779 377.564 69.0059C377.056 67.4005 376.664 65.7605 376.391 64.0987L376.295 63.3572C376.027 61.5224 375.889 59.671 375.881 57.8167C375.881 48.3264 379.025 40.1662 384.974 34.218C389.464 29.7353 395.126 26.8712 401.801 25.7049C404.043 25.3188 406.315 25.1265 408.591 25.13C409.609 25.13 410.659 25.1846 411.801 25.2966C412.104 25.3295 412.394 25.3676 412.735 25.4174L413.055 25.4595L413.072 25.4619C413.623 25.5422 414.193 25.6252 414.719 25.7297C415.328 25.8462 415.906 25.9831 416.391 26.1015C416.661 26.1724 416.95 26.2521 417.274 26.3469C421.627 27.5864 425.757 29.8873 429.551 33.1843C432.541 35.7833 435.385 39.0332 438.246 43.1202C441.106 39.0354 443.955 35.7852 446.952 33.1843C450.75 29.8878 454.884 27.5864 459.239 26.3466C459.581 26.2466 459.861 26.1686 460.121 26.1013C460.742 25.9455 461.273 25.8273 461.791 25.7295C462.326 25.624 462.902 25.5404 463.457 25.4593L463.778 25.4153L463.96 25.39C464.204 25.356 464.457 25.321 464.71 25.2955C465.864 25.1832 466.915 25.1281 467.921 25.1281C470.198 25.1242 472.47 25.3172 474.713 25.7049C481.391 26.8723 487.051 29.7365 491.536 34.218C497.485 40.1653 500.631 48.3257 500.631 57.8167C500.624 59.6706 500.487 61.5217 500.22 63.3563L500.122 64.0959C499.851 65.7584 499.459 67.3991 498.951 69.005C498.925 69.1761 498.885 69.3447 498.83 69.5089L498.605 70.0358C497.149 74.3179 494.732 78.2103 491.541 81.4155C488.016 84.9093 483.683 87.4793 478.927 88.8978L478.866 88.9361L478.246 89.1027C476.759 89.5192 475.246 89.8392 473.717 90.0608L472.826 90.1756C471.199 90.3835 469.561 90.4923 467.921 90.5016ZM408.591 39.8379C397.323 39.8379 390.596 46.559 390.596 57.8167C390.596 59.1299 390.702 60.441 390.913 61.7371C390.939 61.8906 390.974 62.0427 391.016 62.1926L391.037 62.2736C391.088 62.4601 391.142 62.6625 391.189 62.8792C392.642 69.525 396.933 73.7954 403.595 75.2285L404.05 75.3302L404.223 75.3692C404.431 75.4165 404.647 75.4654 404.857 75.4968C406.044 75.6863 407.244 75.7846 408.446 75.7909C409.174 75.7922 409.901 75.7491 410.623 75.6616L411.291 75.5562C411.705 75.4905 412.103 75.4108 412.506 75.3129C412.865 75.2274 413.159 75.1494 413.431 75.0676C413.567 75.029 413.698 74.9832 413.915 74.9068L414.052 74.8596C416.751 73.9164 419.292 72.2781 421.824 69.8507C422.138 69.5538 422.324 69.3716 422.324 69.3716C426.021 65.6605 428.935 61.1475 430.307 58.4115C427.107 53.0528 424.35 48.8382 421.303 45.6991C417.936 42.2295 414.51 40.4002 410.524 39.9421C409.882 39.8722 409.237 39.8375 408.591 39.8381L408.591 39.8379ZM467.921 39.8379C467.276 39.8362 466.63 39.8707 465.988 39.9414C462.001 40.4002 458.575 42.23 455.208 45.6998C452.164 48.8368 449.407 53.0495 446.204 58.4101C448.317 62.433 451.007 66.1254 454.188 69.3702C454.209 69.3905 454.392 69.573 454.689 69.8493C457.22 72.2776 459.762 73.915 462.46 74.8579L462.504 74.8733C462.777 74.9678 462.927 75.0212 463.084 75.0669C463.38 75.1548 463.683 75.2349 464.008 75.3122C464.41 75.4098 464.807 75.4895 465.222 75.5555L465.889 75.6609C466.613 75.7471 467.342 75.7897 468.071 75.7885C469.272 75.7827 470.471 75.6849 471.657 75.4961C471.881 75.4593 472.108 75.4084 472.328 75.3593L472.462 75.3292L472.915 75.2276C479.58 73.7944 483.87 69.5241 485.321 62.8783C485.365 62.6849 485.413 62.4925 485.473 62.2727L485.476 62.2595C485.526 62.0872 485.567 61.9126 485.599 61.7361C485.809 60.44 485.915 59.1289 485.913 57.8158C485.914 46.559 479.188 39.8379 467.921 39.8379Z" fill="#2C47D2"/>
</svg>
