<svg width="28" height="28" viewBox="0 0 28 28" fill="none" xmlns="http://www.w3.org/2000/svg">
<path d="M20.125 9.79672V9.1875C20.125 6.44438 15.9873 4.375 10.5 4.375C5.01266 4.375 0.875 6.44438 0.875 9.1875V13.5625C0.875 15.8473 3.74609 17.663 7.875 18.2066V18.8125C7.875 21.5556 12.0127 23.625 17.5 23.625C22.9873 23.625 27.125 21.5556 27.125 18.8125V14.4375C27.125 12.1734 24.3447 10.3556 20.125 9.79672ZM25.375 14.4375C25.375 15.8834 22.0073 17.5 17.5 17.5C17.092 17.5 16.6873 17.4858 16.2881 17.4595C18.6473 16.5998 20.125 15.2031 20.125 13.5625V11.5653C23.392 12.052 25.375 13.3733 25.375 14.4375ZM7.875 16.4336V13.8316C8.74538 13.945 9.62226 14.0012 10.5 14C11.3777 14.0012 12.2546 13.945 13.125 13.8316V16.4336C12.2559 16.562 11.3785 16.626 10.5 16.625C9.62148 16.626 8.74409 16.562 7.875 16.4336ZM18.375 12.0236V13.5625C18.375 14.4802 17.0177 15.4656 14.875 16.0639V13.5078C16.287 13.1655 17.4825 12.6558 18.375 12.0236ZM10.5 6.125C15.0073 6.125 18.375 7.74156 18.375 9.1875C18.375 10.6334 15.0073 12.25 10.5 12.25C5.99266 12.25 2.625 10.6334 2.625 9.1875C2.625 7.74156 5.99266 6.125 10.5 6.125ZM2.625 13.5625V12.0236C3.5175 12.6558 4.71297 13.1655 6.125 13.5078V16.0639C3.98234 15.4656 2.625 14.4802 2.625 13.5625ZM9.625 18.8125V18.3564C9.91266 18.3673 10.2036 18.375 10.5 18.375C10.9244 18.375 11.3389 18.3608 11.7458 18.3367C12.1978 18.4985 12.6582 18.6358 13.125 18.748V21.3139C10.9823 20.7156 9.625 19.7302 9.625 18.8125ZM14.875 21.6836V19.075C15.7451 19.192 16.6221 19.2504 17.5 19.25C18.3777 19.2512 19.2546 19.195 20.125 19.0816V21.6836C18.3843 21.9388 16.6157 21.9388 14.875 21.6836ZM21.875 21.3139V18.7578C23.287 18.4155 24.4825 17.9058 25.375 17.2736V18.8125C25.375 19.7302 24.0177 20.7156 21.875 21.3139Z" fill="#3357DD"/>
</svg>
