<svg width="28" height="28" viewBox="0 0 28 28" fill="none" xmlns="http://www.w3.org/2000/svg">
<path d="M24.5 5.25H3.5C3.26794 5.25 3.04538 5.34219 2.88128 5.50628C2.71719 5.67038 2.625 5.89294 2.625 6.125V21C2.625 21.4641 2.80937 21.9092 3.13756 22.2374C3.46575 22.5656 3.91087 22.75 4.375 22.75H23.625C24.0891 22.75 24.5342 22.5656 24.8624 22.2374C25.1906 21.9092 25.375 21.4641 25.375 21V6.125C25.375 5.89294 25.2828 5.67038 25.1187 5.50628C24.9546 5.34219 24.7321 5.25 24.5 5.25ZM14 14.5633L5.74984 7H22.2502L14 14.5633ZM10.7964 14L4.375 19.8855V8.11453L10.7964 14ZM12.0914 15.1867L13.4039 16.3953C13.5653 16.5435 13.7765 16.6257 13.9956 16.6257C14.2148 16.6257 14.4259 16.5435 14.5873 16.3953L15.8998 15.1867L22.2436 21H5.74984L12.0914 15.1867ZM17.2036 14L23.625 8.11344V19.8866L17.2036 14Z" fill="#3357DD"/>
</svg>
