<svg width="28" height="28" viewBox="0 0 28 28" fill="none" xmlns="http://www.w3.org/2000/svg">
<path d="M14 2.625C11.7502 2.625 9.551 3.29213 7.68039 4.54203C5.80978 5.79193 4.35182 7.56847 3.49088 9.64698C2.62993 11.7255 2.40467 14.0126 2.84357 16.2192C3.28248 18.4257 4.36584 20.4525 5.95667 22.0433C7.54749 23.6342 9.57432 24.7175 11.7809 25.1564C13.9874 25.5953 16.2745 25.3701 18.353 24.5091C20.4315 23.6482 22.2081 22.1902 23.458 20.3196C24.7079 18.449 25.375 16.2498 25.375 14C25.3718 10.9841 24.1724 8.09271 22.0398 5.96018C19.9073 3.82764 17.0159 2.62818 14 2.625ZM23.625 14C23.626 15.2348 23.3883 16.4582 22.925 17.6028L18.0359 14.5961C17.8281 14.4678 17.5955 14.3847 17.3534 14.3522L14.8575 14.0153C14.5136 13.9705 14.1641 14.0281 13.8528 14.181C13.5415 14.334 13.2822 14.5754 13.1075 14.875H12.1538L11.7381 14.0153C11.6232 13.7759 11.4551 13.566 11.2465 13.4017C11.038 13.2373 10.7946 13.1228 10.535 13.067L9.66 12.8778L10.5153 11.375H12.343C12.6387 11.3744 12.9295 11.2992 13.1884 11.1562L14.5283 10.4169C14.646 10.3513 14.7561 10.2728 14.8564 10.1828L17.7997 7.52063C18.0948 7.25617 18.2909 6.89903 18.3557 6.50811C18.4206 6.11719 18.3502 5.71586 18.1563 5.37031L18.1169 5.29922C19.7638 6.08015 21.1556 7.31215 22.1305 8.85222C23.1055 10.3923 23.6237 12.1773 23.625 14ZM15.6745 4.52156L16.625 6.22344L13.6817 8.88562L12.343 9.625H10.5153C10.2077 9.62455 9.90538 9.70519 9.63885 9.85881C9.37233 10.0124 9.15101 10.2336 8.99719 10.5L8.04235 12.1658L6.93219 9.20828L8.12875 6.37875C9.18788 5.5604 10.4063 4.97229 11.7058 4.65211C13.0054 4.33192 14.3576 4.28671 15.6756 4.51937L15.6745 4.52156ZM4.37501 14C4.37354 12.5694 4.69272 11.1566 5.30907 9.86562L6.54938 13.1764C6.65274 13.4505 6.82327 13.6943 7.04532 13.8854C7.26738 14.0765 7.53385 14.2088 7.82032 14.2702L10.1642 14.7744L10.5809 15.6406C10.7256 15.9352 10.9497 16.1836 11.228 16.3575C11.5063 16.5315 11.8277 16.6241 12.1559 16.625H12.3178L11.527 18.4002C11.3877 18.7127 11.3431 19.0593 11.3987 19.397C11.4543 19.7346 11.6077 20.0486 11.8398 20.3L11.8552 20.3153L14 22.5247L13.7878 23.6184C11.2742 23.5599 8.88296 22.5214 7.12439 20.7244C5.36582 18.9274 4.37918 16.5143 4.37501 14ZM15.5947 23.4916L15.7183 22.8561C15.7691 22.5861 15.756 22.308 15.68 22.044C15.604 21.78 15.4673 21.5375 15.2808 21.3358C15.2754 21.331 15.2703 21.3258 15.2655 21.3205L13.125 19.1122L14.6234 15.75L17.1194 16.0869L22.12 19.1625C21.3955 20.3003 20.4405 21.2734 19.3165 22.0191C18.1925 22.7648 16.9246 23.2664 15.5947 23.4916Z" fill="#3357DD"/>
</svg>
