<svg width="28" height="28" viewBox="0 0 28 28" fill="none" xmlns="http://www.w3.org/2000/svg">
<path d="M25.6484 12.5103L20.7156 16.8153L22.1933 23.2247C22.2715 23.5598 22.2492 23.9105 22.1291 24.2329C22.0091 24.5554 21.7967 24.8353 21.5184 25.0377C21.2402 25.24 20.9085 25.3559 20.5647 25.3708C20.221 25.3857 19.8805 25.2989 19.5858 25.1213L13.9956 21.7307L8.4175 25.1213C8.12281 25.2989 7.78231 25.3857 7.43856 25.3708C7.09482 25.3559 6.76309 25.24 6.48484 25.0377C6.20659 24.8353 5.99417 24.5554 5.87415 24.2329C5.75412 23.9105 5.73181 23.5598 5.81 23.2247L7.28547 16.8219L2.35156 12.5103C2.0906 12.2853 1.9019 11.9882 1.80912 11.6563C1.71634 11.3244 1.72362 10.9725 1.83003 10.6447C1.93645 10.317 2.13726 10.0279 2.4073 9.81383C2.67733 9.59973 3.00457 9.47013 3.34797 9.44128L9.85141 8.87799L12.39 2.82299C12.5226 2.50528 12.7462 2.23389 13.0327 2.043C13.3192 1.8521 13.6557 1.75024 14 1.75024C14.3443 1.75024 14.6808 1.8521 14.9673 2.043C15.2538 2.23389 15.4774 2.50528 15.61 2.82299L18.1563 8.87799L24.6575 9.44128C25.0009 9.47013 25.3281 9.59973 25.5982 9.81383C25.8682 10.0279 26.069 10.317 26.1754 10.6447C26.2819 10.9725 26.2891 11.3244 26.1963 11.6563C26.1036 11.9882 25.9149 12.2853 25.6539 12.5103H25.6484Z" fill="#3357DD"/>
</svg>
