<svg width="28" height="28" viewBox="0 0 28 28" fill="none" xmlns="http://www.w3.org/2000/svg">
<path d="M23.625 7.87494H19.7881C19.8308 7.83885 19.8745 7.80385 19.9161 7.76557C20.2483 7.47045 20.516 7.10996 20.7025 6.70665C20.889 6.30335 20.9903 5.86589 21 5.42166C21.0144 4.93568 20.9293 4.45189 20.7499 3.99999C20.5705 3.54809 20.3007 3.13762 19.9569 2.79378C19.6132 2.44993 19.2028 2.17998 18.751 2.00047C18.2991 1.82097 17.8154 1.73572 17.3294 1.74994C16.885 1.75951 16.4473 1.86072 16.0438 2.04723C15.6403 2.23374 15.2796 2.50153 14.9844 2.83385C14.5758 3.30732 14.2437 3.84167 14 4.4176C13.7563 3.84167 13.4242 3.30732 13.0156 2.83385C12.7204 2.50153 12.3597 2.23374 11.9562 2.04723C11.5527 1.86072 11.115 1.75951 10.6706 1.74994C10.1846 1.73572 9.70087 1.82097 9.24903 2.00047C8.79718 2.17998 8.38679 2.44993 8.04305 2.79378C7.69931 3.13762 7.42948 3.54809 7.25011 3.99999C7.07074 4.45189 6.98563 4.93568 7 5.42166C7.00972 5.86589 7.111 6.30335 7.29751 6.70665C7.48401 7.10996 7.75172 7.47045 8.08391 7.76557C8.12547 7.80166 8.16922 7.83666 8.21188 7.87494H4.375C3.91087 7.87494 3.46575 8.05931 3.13756 8.3875C2.80937 8.71569 2.625 9.16081 2.625 9.62494V13.1249C2.625 13.5891 2.80937 14.0342 3.13756 14.3624C3.46575 14.6906 3.91087 14.8749 4.375 14.8749V21.8749C4.375 22.3391 4.55937 22.7842 4.88756 23.1124C5.21575 23.4406 5.66087 23.6249 6.125 23.6249H21.875C22.3391 23.6249 22.7842 23.4406 23.1124 23.1124C23.4406 22.7842 23.625 22.3391 23.625 21.8749V14.8749C24.0891 14.8749 24.5342 14.6906 24.8624 14.3624C25.1906 14.0342 25.375 13.5891 25.375 13.1249V9.62494C25.375 9.16081 25.1906 8.71569 24.8624 8.3875C24.5342 8.05931 24.0891 7.87494 23.625 7.87494ZM16.2969 3.99322C16.4354 3.84023 16.6041 3.71753 16.7923 3.63283C16.9805 3.54813 17.1842 3.50326 17.3906 3.50103H17.4442C17.6861 3.50255 17.9253 3.55233 18.1477 3.64746C18.3701 3.74259 18.5713 3.88115 18.7395 4.05504C18.9077 4.22892 19.0395 4.43462 19.1271 4.66009C19.2148 4.88555 19.2566 5.12625 19.25 5.36807C19.2478 5.57445 19.2029 5.77815 19.1182 5.96637C19.0335 6.15459 18.9108 6.32327 18.7578 6.46182C17.7198 7.38057 15.9972 7.70432 14.9297 7.81807C15.0609 6.65978 15.4219 4.9765 16.2969 3.99322ZM9.28703 4.0326C9.62603 3.69363 10.0851 3.5022 10.5645 3.49994H10.6181C10.8245 3.50217 11.0282 3.54704 11.2164 3.63174C11.4047 3.71644 11.5733 3.83913 11.7119 3.99213C12.6295 5.029 12.9533 6.74838 13.067 7.8115C12.0039 7.70213 10.2845 7.374 9.24766 6.45635C9.09466 6.3178 8.97196 6.14913 8.88727 5.96091C8.80257 5.77268 8.7577 5.56898 8.75547 5.3626C8.74869 5.11676 8.79192 4.87211 8.88254 4.64348C8.97316 4.41486 9.10929 4.20702 9.28266 4.0326H9.28703ZM4.375 9.62494H13.125V13.1249H4.375V9.62494ZM6.125 14.8749H13.125V21.8749H6.125V14.8749ZM21.875 21.8749H14.875V14.8749H21.875V21.8749ZM23.625 13.1249H14.875V9.62494H23.625V13.1249Z" fill="#3357DD"/>
</svg>
