<svg width="28" height="28" viewBox="0 0 28 28" fill="none" xmlns="http://www.w3.org/2000/svg">
<path d="M14 2.625C11.7502 2.625 9.551 3.29213 7.68039 4.54203C5.80978 5.79193 4.35182 7.56847 3.49088 9.64698C2.62993 11.7255 2.40467 14.0126 2.84357 16.2192C3.28248 18.4257 4.36584 20.4525 5.95667 22.0433C7.54749 23.6342 9.57432 24.7175 11.7809 25.1564C13.9874 25.5953 16.2745 25.3701 18.353 24.5091C20.4315 23.6482 22.2081 22.1902 23.458 20.3196C24.7079 18.449 25.375 16.2498 25.375 14C25.3718 10.9841 24.1724 8.09271 22.0398 5.96018C19.9073 3.82764 17.0159 2.62818 14 2.625ZM21.8608 8.45141L14.875 12.4841V4.41547C16.2621 4.54264 17.6051 4.96936 18.8112 5.66617C20.0173 6.36298 21.0578 7.31326 21.8608 8.45141ZM13.125 4.41547V13.4936L5.26204 18.0327C4.61655 16.6336 4.31638 15.1 4.38676 13.5608C4.45715 12.0216 4.89603 10.5218 5.66651 9.18746C6.43699 7.85313 7.51655 6.72328 8.81444 5.89288C10.1123 5.06248 11.5906 4.55582 13.125 4.41547ZM14 23.625C12.4591 23.6244 10.9409 23.2538 9.573 22.5444C8.20511 21.8351 7.02751 20.8077 6.13922 19.5486L22.738 9.96625C23.4149 11.4327 23.7118 13.0459 23.6015 14.6573C23.4913 16.2686 22.9772 17.8263 22.1069 19.1869C21.2365 20.5474 20.0377 21.667 18.621 22.4426C17.2043 23.2182 15.6151 23.6248 14 23.625Z" fill="#3357DD"/>
</svg>
