<svg width="28" height="28" viewBox="0 0 28 28" fill="none" xmlns="http://www.w3.org/2000/svg">
<path d="M14 2.625C11.7502 2.625 9.551 3.29213 7.68039 4.54203C5.80978 5.79193 4.35182 7.56847 3.49088 9.64698C2.62993 11.7255 2.40467 14.0126 2.84357 16.2192C3.28248 18.4257 4.36584 20.4525 5.95667 22.0433C7.54749 23.6342 9.57432 24.7175 11.7809 25.1564C13.9874 25.5953 16.2745 25.3701 18.353 24.5091C20.4315 23.6482 22.2081 22.1902 23.458 20.3196C24.7079 18.449 25.375 16.2498 25.375 14C25.3718 10.9841 24.1724 8.09271 22.0398 5.96018C19.9073 3.82764 17.0159 2.62818 14 2.625ZM23.5845 13.125H20.9431C20.7467 11.5843 20.0442 10.1523 18.946 9.05405C17.8477 7.95576 16.4158 7.25328 14.875 7.05687V4.41547C17.1149 4.62285 19.2117 5.60707 20.8023 7.19768C22.3929 8.78829 23.3772 10.8851 23.5845 13.125ZM13.125 13.125H8.82438C9.00755 12.051 9.5197 11.0604 10.2901 10.2901C11.0605 9.5197 12.051 9.00755 13.125 8.82438V13.125ZM13.125 14.875V19.1756C12.051 18.9925 11.0605 18.4803 10.2901 17.7099C9.5197 16.9396 9.00755 15.949 8.82438 14.875H13.125ZM14.875 14.875H19.1756C18.9925 15.949 18.4803 16.9396 17.7099 17.7099C16.9396 18.4803 15.949 18.9925 14.875 19.1756V14.875ZM14.875 13.125V8.82438C15.949 9.00755 16.9396 9.5197 17.7099 10.2901C18.4803 11.0604 18.9925 12.051 19.1756 13.125H14.875ZM13.125 4.41547V7.05687C11.5843 7.25328 10.1523 7.95576 9.05406 9.05405C7.95577 10.1523 7.25328 11.5843 7.05688 13.125H4.41547C4.62285 10.8851 5.60708 8.78829 7.19769 7.19768C8.7883 5.60707 10.8851 4.62285 13.125 4.41547ZM4.41547 14.875H7.05688C7.25328 16.4157 7.95577 17.8477 9.05406 18.9459C10.1523 20.0442 11.5843 20.7467 13.125 20.9431V23.5845C10.8851 23.3772 8.7883 22.3929 7.19769 20.8023C5.60708 19.2117 4.62285 17.1149 4.41547 14.875ZM14.875 23.5845V20.9431C16.4158 20.7467 17.8477 20.0442 18.946 18.9459C20.0442 17.8477 20.7467 16.4157 20.9431 14.875H23.5845C23.3772 17.1149 22.3929 19.2117 20.8023 20.8023C19.2117 22.3929 17.1149 23.3772 14.875 23.5845Z" fill="#3357DD"/>
</svg>
