<svg width="28" height="28" viewBox="0 0 28 28" fill="none" xmlns="http://www.w3.org/2000/svg">
<path d="M21.875 5.25H14.875V1.75C14.875 1.51794 14.7828 1.29538 14.6187 1.13128C14.4546 0.967187 14.2321 0.875 14 0.875C13.7679 0.875 13.5454 0.967187 13.3813 1.13128C13.2172 1.29538 13.125 1.51794 13.125 1.75V5.25H6.125C5.19674 5.25 4.3065 5.61875 3.65013 6.27513C2.99375 6.9315 2.625 7.82174 2.625 8.75V21C2.625 21.9283 2.99375 22.8185 3.65013 23.4749C4.3065 24.1313 5.19674 24.5 6.125 24.5H21.875C22.8033 24.5 23.6935 24.1313 24.3499 23.4749C25.0063 22.8185 25.375 21.9283 25.375 21V8.75C25.375 7.82174 25.0063 6.9315 24.3499 6.27513C23.6935 5.61875 22.8033 5.25 21.875 5.25ZM23.625 21C23.625 21.4641 23.4406 21.9092 23.1124 22.2374C22.7842 22.5656 22.3391 22.75 21.875 22.75H6.125C5.66087 22.75 5.21575 22.5656 4.88756 22.2374C4.55937 21.9092 4.375 21.4641 4.375 21V8.75C4.375 8.28587 4.55937 7.84075 4.88756 7.51256C5.21575 7.18437 5.66087 7 6.125 7H21.875C22.3391 7 22.7842 7.18437 23.1124 7.51256C23.4406 7.84075 23.625 8.28587 23.625 8.75V21ZM17.9375 14.875H10.0625C9.25027 14.875 8.47132 15.1977 7.89699 15.772C7.32266 16.3463 7 17.1253 7 17.9375C7 18.7497 7.32266 19.5287 7.89699 20.103C8.47132 20.6773 9.25027 21 10.0625 21H17.9375C18.7497 21 19.5287 20.6773 20.103 20.103C20.6773 19.5287 21 18.7497 21 17.9375C21 17.1253 20.6773 16.3463 20.103 15.772C19.5287 15.1977 18.7497 14.875 17.9375 14.875ZM14.875 16.625V19.25H13.125V16.625H14.875ZM8.75 17.9375C8.75 17.5894 8.88828 17.2556 9.13442 17.0094C9.38056 16.7633 9.7144 16.625 10.0625 16.625H11.375V19.25H10.0625C9.7144 19.25 9.38056 19.1117 9.13442 18.8656C8.88828 18.6194 8.75 18.2856 8.75 17.9375ZM17.9375 19.25H16.625V16.625H17.9375C18.2856 16.625 18.6194 16.7633 18.8656 17.0094C19.1117 17.2556 19.25 17.5894 19.25 17.9375C19.25 18.2856 19.1117 18.6194 18.8656 18.8656C18.6194 19.1117 18.2856 19.25 17.9375 19.25ZM7.875 11.8125C7.875 11.5529 7.95198 11.2992 8.0962 11.0833C8.24042 10.8675 8.4454 10.6992 8.68523 10.5999C8.92506 10.5006 9.18896 10.4746 9.44356 10.5252C9.69816 10.5759 9.93202 10.7009 10.1156 10.8844C10.2991 11.068 10.4241 11.3018 10.4748 11.5564C10.5254 11.811 10.4994 12.0749 10.4001 12.3148C10.3008 12.5546 10.1325 12.7596 9.91669 12.9038C9.70085 13.048 9.44709 13.125 9.1875 13.125C8.8394 13.125 8.50556 12.9867 8.25942 12.7406C8.01328 12.4944 7.875 12.1606 7.875 11.8125ZM17.5 11.8125C17.5 11.5529 17.577 11.2992 17.7212 11.0833C17.8654 10.8675 18.0704 10.6992 18.3102 10.5999C18.5501 10.5006 18.814 10.4746 19.0686 10.5252C19.3232 10.5759 19.557 10.7009 19.7406 10.8844C19.9241 11.068 20.0491 11.3018 20.0998 11.5564C20.1504 11.811 20.1244 12.0749 20.0251 12.3148C19.9258 12.5546 19.7575 12.7596 19.5417 12.9038C19.3258 13.048 19.0721 13.125 18.8125 13.125C18.4644 13.125 18.1306 12.9867 17.8844 12.7406C17.6383 12.4944 17.5 12.1606 17.5 11.8125Z" fill="#3357DD"/>
</svg>
