<svg width="28" height="28" viewBox="0 0 28 28" fill="none" xmlns="http://www.w3.org/2000/svg">
<path d="M11.3498 20.3372C11.3072 20.5067 10.2408 24.5 4.375 24.5C4.14294 24.5 3.92038 24.4078 3.75629 24.2437C3.59219 24.0796 3.5 23.857 3.5 23.625C3.5 17.7592 7.49328 16.6928 7.66282 16.6501C7.88806 16.5938 8.12644 16.6294 8.32551 16.7488C8.52458 16.8683 8.66803 17.062 8.7243 17.2872C8.78058 17.5125 8.74507 17.7509 8.62559 17.9499C8.50611 18.149 8.31244 18.2924 8.08719 18.3487C7.98875 18.3761 5.635 19.064 5.29157 22.7084C8.93594 22.365 9.625 20.0156 9.65344 19.9062C9.71146 19.6813 9.85646 19.4886 10.0566 19.3705C10.2566 19.2525 10.4954 19.2187 10.7204 19.2768C10.9454 19.3348 11.138 19.4798 11.2561 19.6799C11.3741 19.88 11.4079 20.1188 11.3498 20.3437V20.3372ZM21.5217 12.9653L21 13.487V19.8668C21.0013 20.0975 20.9567 20.3262 20.8688 20.5395C20.781 20.7528 20.6516 20.9465 20.4881 21.1093L16.7344 24.8609C16.5725 25.0239 16.3799 25.1533 16.1678 25.2415C15.9557 25.3298 15.7282 25.3751 15.4984 25.375C15.3088 25.3749 15.1205 25.3443 14.9406 25.2842C14.6319 25.1821 14.3578 24.9956 14.1494 24.7459C13.9411 24.4962 13.8067 24.1931 13.7616 23.8711L13.1742 19.6612L8.33875 14.8258L4.1311 14.2384C3.8086 14.1932 3.50512 14.0589 3.25479 13.8505C3.00447 13.6422 2.81723 13.3682 2.71415 13.0593C2.61106 12.7504 2.59622 12.4189 2.67129 12.102C2.74636 11.7851 2.90836 11.4954 3.13907 11.2656L6.89063 7.51184C7.05346 7.34842 7.24717 7.21901 7.46048 7.13113C7.67378 7.04325 7.90243 6.99867 8.13313 6.99997H14.513L15.0347 6.47825C17.9528 3.56122 21.4692 3.43544 22.8452 3.51747C23.2718 3.5434 23.6742 3.72457 23.9764 4.02681C24.2787 4.32905 24.4599 4.73145 24.4858 5.15809C24.5656 6.53075 24.4398 10.0472 21.5228 12.9653H21.5217ZM4.375 12.5059L8.43829 13.0725L12.763 8.74997H8.13313L4.375 12.5059ZM9.98813 14L14 18.0118L20.2836 11.7283C21.1304 10.8872 21.7874 9.87454 22.2103 8.75846C22.6333 7.64238 22.8125 6.4487 22.7358 5.25763C21.5453 5.1838 20.3528 5.36485 19.2379 5.78866C18.1231 6.21248 17.1114 6.86931 16.2706 7.71528L9.98813 14ZM19.25 15.237L14.9264 19.5606L15.4952 23.625L19.25 19.8668V15.237Z" fill="#3357DD"/>
</svg>
