<svg width="28" height="28" viewBox="0 0 28 28" fill="none" xmlns="http://www.w3.org/2000/svg">
<path d="M26.25 11.0118C26.2507 10.782 26.2058 10.5542 26.1177 10.3418C26.0296 10.1295 25.9002 9.93673 25.737 9.77482L18.2251 2.26185C18.0626 2.09931 17.8697 1.97037 17.6574 1.88239C17.445 1.79442 17.2174 1.74915 16.9876 1.74915C16.7577 1.74915 16.5301 1.79442 16.3178 1.88239C16.1054 1.97037 15.9125 2.09931 15.75 2.26185L12.6405 5.37138L6.29671 7.75247C6.0084 7.86 5.7534 8.04137 5.55722 8.27843C5.36105 8.51549 5.23058 8.79992 5.1789 9.10326L2.63702 24.3556C2.61605 24.481 2.62264 24.6094 2.65635 24.732C2.69006 24.8546 2.75007 24.9683 2.8322 25.0653C2.91434 25.1624 3.01663 25.2403 3.13195 25.2938C3.24728 25.3473 3.37287 25.375 3.49999 25.375C3.54836 25.3748 3.59663 25.3707 3.64437 25.3629L18.8956 22.8211C19.1986 22.7705 19.4829 22.6411 19.72 22.4458C19.9571 22.2506 20.1387 21.9964 20.2464 21.7087L22.6275 15.365L25.737 12.25C25.9003 12.0879 26.0298 11.895 26.1178 11.6824C26.2059 11.4699 26.2508 11.2419 26.25 11.0118ZM18.608 21.0951L6.05062 23.1875L11.2317 18.0064C11.8788 18.3561 12.6302 18.4613 13.3485 18.3026C14.0667 18.1439 14.7039 17.732 15.1434 17.1422C15.5829 16.5524 15.7955 15.824 15.7422 15.0904C15.689 14.3568 15.3734 13.6668 14.8533 13.1467C14.3332 12.6265 13.6432 12.311 12.9096 12.2577C12.1759 12.2044 11.4476 12.417 10.8578 12.8566C10.268 13.2961 9.85609 13.9333 9.6974 14.6515C9.53872 15.3698 9.64385 16.1211 9.99359 16.7683L4.81249 21.9515L6.90484 9.39091L12.9062 7.14107L20.8578 15.0937L18.608 21.0951ZM11.375 15.3125C11.375 15.0529 11.452 14.7991 11.5962 14.5833C11.7404 14.3674 11.9454 14.1992 12.1852 14.0999C12.425 14.0005 12.6889 13.9746 12.9435 14.0252C13.1981 14.0758 13.432 14.2008 13.6156 14.3844C13.7991 14.568 13.9241 14.8018 13.9748 15.0564C14.0254 15.311 13.9994 15.5749 13.9001 15.8147C13.8007 16.0546 13.6325 16.2596 13.4167 16.4038C13.2008 16.548 12.9471 16.625 12.6875 16.625C12.3394 16.625 12.0056 16.4867 11.7594 16.2406C11.5133 15.9944 11.375 15.6606 11.375 15.3125ZM21.875 13.6368L14.362 6.12497L16.987 3.49997L24.5 11.0118L21.875 13.6368Z" fill="#3357DD"/>
</svg>
