<svg width="998" height="327" viewBox="0 0 998 327" fill="none" xmlns="http://www.w3.org/2000/svg">
<g clip-path="url(#clip0_2933_22252)">
<path d="M9 328.821C9.16904 289.266 22.0835 208.432 72.3892 201.536C135.271 192.915 154.035 218.777 199.675 255.797C245.315 292.816 324.425 323.243 385.278 238.555C446.132 153.867 459.317 69.1788 385.278 69.1788C311.24 69.1788 354.344 231.962 457.289 231.962C560.233 231.962 638.835 123.44 746.344 107.212C853.852 90.9847 863.994 197.479 826.975 238.555C789.955 279.631 748.372 235.512 792.998 174.659C837.624 113.805 1000.99 138.733 1037 86.5" stroke="#2C47D2" stroke-width="12"/>
</g>
<defs>
<clipPath id="clip0_2933_22252">
<rect width="998" height="327" fill="white"/>
</clipPath>
</defs>
</svg>
