<svg width="169" height="18" viewBox="0 0 169 18" fill="none" xmlns="http://www.w3.org/2000/svg">
<g clip-path="url(#clip0_7951_4861)">
<path d="M1.47117 14.3637C0.982893 14.0439 0.494617 13.7305 0 13.417V17.7931H3.92523V16.1004C3.14526 15.4985 2.33358 14.9217 1.46483 14.3637H1.47117Z" fill="#BDBDBD"/>
<path d="M12.1181 1.95622C10.8879 0.92174 8.91579 0.401367 6.21442 0.401367H0V10.8715C1.3063 11.7367 2.63796 12.558 3.92523 13.4546V12.9467H6.26515C8.86506 12.9467 10.7991 12.4514 12.0674 11.4546C13.3356 10.4577 13.9698 8.89034 13.9698 6.73988C13.9698 4.58943 13.3547 2.99696 12.1181 1.96249V1.95622ZM9.23919 8.80257C8.76994 9.32294 7.88217 9.58626 6.56953 9.58626H3.92523V3.73677H6.16369C7.4573 3.73677 8.40849 3.94993 9.02359 4.36999C9.63869 4.79005 9.94307 5.50478 9.94307 6.50791C9.94307 7.51104 9.70844 8.27592 9.23919 8.7963V8.80257Z" fill="#FDFDFD"/>
<path d="M15.0039 13.5049V17.7995H18.9291V15.9375C17.5658 15.2039 16.2278 14.439 15.0039 13.5049Z" fill="#BDBDBD"/>
<path d="M25.924 11.5737C28.1561 10.7587 29.2722 8.95931 29.2722 6.17562C29.2722 4.15056 28.6888 2.68348 27.522 1.76813C26.3552 0.859045 24.4021 0.401367 21.669 0.401367H14.998V10.6897C16.1522 11.8433 17.5092 12.7273 18.9233 13.5235V12.2508H21.6437L25.5435 17.7994H30.3756L25.9177 11.58L25.924 11.5737ZM24.5416 8.23831C24.0533 8.67091 23.1402 8.88407 21.7959 8.88407H18.9296V3.7305H21.872C23.1275 3.7305 24.009 3.90605 24.5163 4.25087C25.0172 4.60197 25.2709 5.24146 25.2709 6.18189C25.2709 7.12233 25.0299 7.80571 24.5416 8.23204V8.23831Z" fill="#FDFDFD"/>
<path d="M35.5054 5.16611C35.5435 5.12222 35.5815 5.07207 35.6196 5.02818C36.6278 3.93101 37.8644 3.38556 39.3292 3.38556C40.794 3.38556 42.0369 3.93101 43.0388 5.02818C44.0471 6.12535 44.5481 7.44823 44.5481 8.99681C44.5481 10.1002 44.2881 11.0783 43.7808 11.9435C44.7954 12.7335 45.8163 13.5109 46.8436 14.2883C47.9723 12.7836 48.5494 11.0219 48.5494 8.98427C48.5494 6.43256 47.6616 4.29464 45.8797 2.57679C44.0978 0.858928 41.9101 0 39.3102 0C36.7103 0 34.5162 0.858928 32.7407 2.57679C32.7216 2.59559 32.7026 2.62067 32.6836 2.63948C33.6094 3.49214 34.5479 4.33226 35.4991 5.16611H35.5054Z" fill="#BDBDBD"/>
<path d="M42.384 13.5544C41.5089 14.2378 40.4944 14.5826 39.3276 14.5826C37.8564 14.5826 36.6199 14.0371 35.6179 12.9525C34.6097 11.8679 34.1087 10.545 34.1087 8.99642C34.1087 8.3005 34.2165 7.65474 34.4194 7.05286C33.3858 6.15631 32.3585 5.24723 31.3503 4.31934C30.5132 5.67983 30.082 7.22841 30.082 8.98388C30.082 11.5419 30.9698 13.6735 32.7517 15.3914C34.5272 17.1092 36.7213 17.9682 39.3212 17.9682C41.6802 17.9682 43.6967 17.2534 45.3771 15.8428C44.3752 15.0842 43.3796 14.3255 42.384 13.5544Z" fill="#FDFDFD"/>
<path d="M49.8359 6.20061V17.7993H53.7612V11.5862C52.531 9.73663 51.1549 7.98743 49.8359 6.19434V6.20061Z" fill="#BDBDBD"/>
<path d="M64.2369 0.401367L59.6839 9.95617L55.1499 0.401367H49.8359V2.46405C49.8359 2.46405 49.8867 2.52048 49.9057 2.55182C51.0915 4.39507 52.4485 6.12547 53.7612 7.88094V6.8402L55.4796 10.2947C55.4796 10.2947 56.1011 11.5424 56.1011 11.5486L58.4917 16.3511H60.8317L65.5876 6.84647V17.7931H69.5128V0.401367H64.2242H64.2369Z" fill="#FDFDFD"/>
<path d="M76.6281 4.74605C77.5793 3.84323 78.7207 3.38556 80.0524 3.38556C81.5172 3.38556 82.7601 3.93101 83.762 5.02818C84.7703 6.12535 85.2712 7.44823 85.2712 8.99681C85.2712 10.1441 84.9922 11.1598 84.4469 12.0501C85.4361 12.8589 86.4697 13.6175 87.5414 14.3259C88.6892 12.815 89.2726 11.0344 89.2726 8.98427C89.2726 6.43256 88.3848 4.29464 86.6029 2.57679C84.821 0.858928 82.6333 0 80.0334 0C77.6427 0 75.6072 0.733537 73.9141 2.1818C74.8335 3.01565 75.734 3.87458 76.6218 4.74605H76.6281Z" fill="#BDBDBD"/>
<path d="M83.0135 13.6367C82.1638 14.2699 81.1746 14.5896 80.0585 14.5896C78.5873 14.5896 77.3508 14.0442 76.3425 12.9596C75.3343 11.8749 74.8333 10.5521 74.8333 9.00348C74.8333 8.08812 75.0109 7.25427 75.366 6.50192C74.4085 5.56776 73.4446 4.65241 72.4617 3.75586C71.3647 5.24801 70.8066 6.99095 70.8066 8.99721C70.8066 11.5552 71.6944 13.6868 73.4763 15.4047C75.2519 17.1225 77.4459 17.9815 80.0458 17.9815C82.3794 17.9815 84.3769 17.2856 86.051 15.9C85.0047 15.1915 83.9837 14.4454 83.0135 13.6429V13.6367Z" fill="#FDFDFD"/>
<path d="M88.625 0.401367V3.76185H93.6092V9.30413C94.8141 10.6207 96.1521 11.7994 97.5344 12.9342V3.76185H102.519V0.401367H88.625Z" fill="#FDFDFD"/>
<path d="M93.6094 12.3516V17.7998H97.5346V15.6807C96.1903 14.6086 94.8586 13.524 93.6094 12.3516Z" fill="#BDBDBD"/>
<path d="M107.275 9.6803V0.401367H103.35V5.42328C104.726 6.7775 105.975 8.25712 107.275 9.6803Z" fill="#BDBDBD"/>
<path d="M103.35 8.52051V17.7994H107.275V12.7713C105.892 11.4233 104.65 9.9437 103.35 8.52051Z" fill="#FDFDFD"/>
<path d="M113.667 5.6426C113.813 5.46705 113.965 5.29777 114.137 5.14103C115.183 4.18806 116.445 3.71157 117.922 3.71157C119.768 3.71157 121.309 4.47646 122.551 5.99996L124.993 3.26017C123.046 1.08463 120.63 0 117.745 0C115.158 0 112.976 0.865198 111.188 2.58933C110.985 2.78368 110.795 2.99058 110.617 3.19747C111.505 4.12536 112.551 4.9216 113.667 5.6426Z" fill="#BDBDBD"/>
<path d="M117.644 14.364C116.236 14.364 115.031 13.875 114.042 12.897C113.053 11.9189 112.558 10.6211 112.558 9.00357C112.558 8.47693 112.621 7.99417 112.729 7.53649C111.556 6.77161 110.434 5.94403 109.425 4.97852C108.817 6.19481 108.506 7.54903 108.506 9.05372C108.506 11.6368 109.381 13.7684 111.137 15.4612C112.894 17.154 115.126 18.0004 117.834 18.0004C120.542 18.0004 122.894 16.8907 124.892 14.665L122.374 12.1007C121.15 13.6117 119.571 14.364 117.644 14.364Z" fill="#FDFDFD"/>
<path d="M125.949 10.9902V17.799H129.874V12.8711L130.027 12.7081C128.657 12.1626 127.275 11.6297 125.949 10.9902Z" fill="#BDBDBD"/>
<path d="M134.383 8.09411L141.377 0.401367H136.52L129.874 7.54239V0.401367H125.949V8.57059C126.602 8.93423 127.268 9.27278 127.953 9.57372C128.067 9.62388 128.181 9.67404 128.295 9.72419C128.34 9.743 128.359 9.74927 128.372 9.75554C128.422 9.78062 128.479 9.79943 128.53 9.8245C128.796 9.93109 129.063 10.0439 129.329 10.1443C129.843 10.3511 130.363 10.5518 130.876 10.7587C131.105 10.8527 131.289 10.9844 131.428 11.1474L131.631 10.9217L136.793 17.7931H141.371C140.566 16.6834 139.348 14.9906 137.719 12.7273C136.089 10.464 134.973 8.91542 134.37 8.08784L134.383 8.09411Z" fill="#FDFDFD"/>
<path d="M147.922 10.7587H153.591V7.44834H145.715V3.86216H154.472V0.401367H141.783V7.00321C143.749 8.38251 145.899 9.46714 147.922 10.7524V10.7587Z" fill="#FDFDFD"/>
<path d="M145.708 14.3632V11.9055C144.402 11.1281 143.064 10.3883 141.783 9.57324V17.7989H154.745V14.3632H145.708Z" fill="#BDBDBD"/>
<path d="M159.729 10.2822V17.7994H163.654V14.5769C162.385 13.1098 161.098 11.6553 159.729 10.2822Z" fill="#BDBDBD"/>
<path d="M159.728 7.32336C161.117 8.57727 162.411 9.93777 163.654 11.3296V3.75599H168.638V0.395508H154.744V3.75599H159.728V7.31709V7.32336Z" fill="#FDFDFD"/>
</g>
<defs>
<clipPath id="clip0_7951_4861">
<rect width="168.638" height="18.0001" fill="white"/>
</clipPath>
</defs>
</svg>
